<!DOCTYPE svg PUBLIC "-//W3C//DTD SVG 1.1//EN" "http://www.w3.org/Graphics/SVG/1.1/DTD/svg11.dtd">

<!-- Uploaded to: SVG Repo, www.svgrepo.com, Transformed by: SVG Repo Mixer Tools -->
<svg fill="#000000" height="40px" width="40px" version="1.1" id="Layer_1" xmlns="http://www.w3.org/2000/svg" xmlns:xlink="http://www.w3.org/1999/xlink" viewBox="0 0 330 330" xml:space="preserve" stroke="#000000">

<g id="SVGRepo_bgCarrier" stroke-width="0"/>

<g id="SVGRepo_tracerCarrier" stroke-linecap="round" stroke-linejoin="round"/>

<g id="SVGRepo_iconCarrier"> <g id="XMLID_244_"> <path id="XMLID_245_" d="M95,115c5.26,0,10.42-2.13,14.14-5.86c3.72-3.72,5.86-8.87,5.86-14.14s-2.141-10.42-5.86-14.14 C105.42,77.13,100.26,75,95,75s-10.42,2.13-14.141,5.86C77.14,84.58,75,89.73,75,95s2.14,10.42,5.859,14.14 C84.58,112.87,89.74,115,95,115z"/> <path id="XMLID_307_" d="M95,255c5.26,0,10.42-2.13,14.14-5.86c3.72-3.72,5.86-8.87,5.86-14.14s-2.141-10.42-5.86-14.14 c-3.72-3.73-8.88-5.86-14.14-5.86s-10.42,2.13-14.141,5.86C77.14,224.58,75,229.73,75,235s2.14,10.42,5.859,14.14 C84.58,252.87,89.74,255,95,255z"/> <path id="XMLID_308_" d="M165,185c5.26,0,10.42-2.14,14.14-5.86c3.72-3.72,5.86-8.87,5.86-14.14s-2.141-10.42-5.86-14.14 c-3.72-3.72-8.87-5.86-14.14-5.86c-5.27,0-10.42,2.14-14.141,5.86C147.13,154.58,145,159.73,145,165s2.13,10.42,5.859,14.14 C154.58,182.86,159.73,185,165,185z"/> <path id="XMLID_309_" d="M235,115c5.26,0,10.42-2.13,14.14-5.86c3.72-3.72,5.86-8.88,5.86-14.14c0-5.26-2.141-10.42-5.86-14.14 C245.42,77.13,240.26,75,235,75s-10.42,2.13-14.141,5.86C217.14,84.58,215,89.73,215,95s2.14,10.42,5.859,14.14 C224.58,112.87,229.74,115,235,115z"/> <path id="XMLID_311_" d="M235,255c5.26,0,10.42-2.13,14.14-5.86c3.72-3.72,5.86-8.88,5.86-14.14c0-5.26-2.141-10.42-5.86-14.14 c-3.72-3.73-8.87-5.86-14.14-5.86c-5.27,0-10.42,2.13-14.141,5.86C217.14,224.58,215,229.74,215,235c0,5.27,2.14,10.42,5.859,14.14 C224.58,252.87,229.74,255,235,255z"/> <path id="XMLID_312_" d="M315,0.001H15c-8.284,0-15,6.716-15,15V315c0,8.284,6.716,15,15,15h300c8.284,0,15-6.716,15-15V15 C330,6.716,323.284,0.001,315,0.001z M300,300H30V30h270V300z"/> </g> </g>

</svg>